<?xml version="1.0" encoding="iso-8859-1"?>
<!-- Generator: Adobe Illustrator 19.0.0, SVG Export Plug-In . SVG Version: 6.00 Build 0)  -->
<svg version="1.1" id="Layer_1" xmlns="http://www.w3.org/2000/svg" xmlns:xlink="http://www.w3.org/1999/xlink" x="0px" y="0px"
	 viewBox="0 0 512 512" style="enable-background:new 0 0 512 512;" xml:space="preserve">
<g>
	<g>
		<path d="M427.306,494.665L376.075,14.012C375.226,6.045,368.503,0,360.49,0H151.51c-8.013,0-14.736,6.045-15.585,14.012
			L84.694,494.665C83.706,503.929,90.979,512,100.279,512h311.442C421.039,512,428.292,503.911,427.306,494.665z M231.709,25.866
			c0.139-5.67,4.775-10.193,10.446-10.193h27.69c5.671,0,10.307,4.523,10.446,10.193l0.838,34.19
			c0.144,5.869-4.575,10.705-10.446,10.705h-29.366c-5.871,0-10.59-4.836-10.446-10.705L231.709,25.866z M229.276,125.109
			c0.139-5.67,4.775-10.193,10.446-10.193h32.557c5.671,0,10.307,4.523,10.446,10.193l1.135,46.291
			c0.144,5.869-4.575,10.705-10.446,10.705h-34.828c-5.871,0-10.59-4.836-10.446-10.705L229.276,125.109z M226.294,246.709
			c0.139-5.67,4.775-10.193,10.446-10.193h38.521c5.671,0,10.307,4.523,10.446,10.193l1.542,62.866
			c0.144,5.869-4.575,10.705-10.446,10.705h-41.604c-5.871,0-10.59-4.836-10.446-10.705L226.294,246.709z M281.119,496.316h-50.239
			c-5.871,0-10.59-4.836-10.446-10.705l2.12-86.432c0.139-5.67,4.775-10.193,10.446-10.193h45.998
			c5.671,0,10.307,4.523,10.446,10.193l2.119,86.432C291.708,491.48,286.991,496.316,281.119,496.316z"/>
	</g>
</g>
<g>
</g>
<g>
</g>
<g>
</g>
<g>
</g>
<g>
</g>
<g>
</g>
<g>
</g>
<g>
</g>
<g>
</g>
<g>
</g>
<g>
</g>
<g>
</g>
<g>
</g>
<g>
</g>
<g>
</g>
</svg>
